<svg xmlns="http://www.w3.org/2000/svg" viewBox="0 0 22 22" width="22" height="22">
	<style>
		tspan { white-space:pre }
		.shp0 { fill: #ffffff } 
	</style>
	<path id="pinterest" class="shp0" d="M11,0.01c-6.07,0 -10.99,4.92 -10.99,10.99c0,4.52 2.73,8.41 6.64,10.1c-0.03,-0.77 0,-1.68 0.19,-2.51c0.21,-0.89 1.42,-6.01 1.42,-6.01c0,0 -0.35,-0.7 -0.35,-1.75c0,-1.63 0.95,-2.85 2.13,-2.85c1,0 1.49,0.75 1.49,1.66c0,1.01 -0.64,2.52 -0.98,3.91c-0.28,1.17 0.59,2.12 1.74,2.12c2.09,0 3.49,-2.68 3.49,-5.86c0,-2.42 -1.63,-4.23 -4.59,-4.23c-3.34,0 -5.43,2.49 -5.43,5.28c0,0.96 0.28,1.64 0.73,2.16c0.2,0.24 0.23,0.34 0.16,0.62c-0.05,0.2 -0.17,0.69 -0.22,0.89c-0.07,0.28 -0.3,0.38 -0.55,0.27c-1.54,-0.63 -2.26,-2.32 -2.26,-4.21c0,-3.13 2.64,-6.89 7.88,-6.89c4.21,0 6.98,3.05 6.98,6.32c0,4.33 -2.41,7.56 -5.95,7.56c-1.19,0 -2.31,-0.64 -2.69,-1.37c0,0 -0.64,2.54 -0.78,3.03c-0.23,0.84 -0.68,1.67 -1.09,2.33c0.96,0.27 1.98,0.42 3.03,0.42c6.07,0 10.99,-4.92 10.99,-10.99c0,-6.07 -4.92,-10.99 -10.99,-10.99z" />
</svg>