<svg xmlns="http://www.w3.org/2000/svg" viewBox="0 0 16 16" width="16" height="16">
	<style>
		tspan { white-space:pre }
		.shp0 { fill: #ffffff } 
	</style>
	<path id="Search" class="shp0" d="M15.53 15.53C14.95 16.12 14 16.12 13.41 15.53L10.76 12.89C9.68 13.58 8.39 14 7 14C3.13 14 0 10.87 0 7C0 3.13 3.13 0 7 0C10.87 0 14 3.13 14 7C14 8.39 13.58 9.68 12.89 10.76L15.53 13.41C16.12 14 16.12 14.95 15.53 15.53ZM7 2C4.24 2 2 4.24 2 7C2 9.76 4.24 12 7 12C9.76 12 12 9.76 12 7C12 4.24 9.76 2 7 2Z" />
</svg>