<svg xmlns="http://www.w3.org/2000/svg" viewBox="0 0 24 22" width="24" height="22">
	<style>
		tspan { white-space:pre }
		.shp0 { fill: #ffffff } 
	</style>
	<path id="facebook" class="shp0" d="M21.31 21.99L2.69 21.99C1.75 21.99 0.99 21.3 0.99 20.37L0.99 1.7C0.99 0.77 1.75 0.01 2.69 0.01L21.31 0.01C22.25 0.01 23.01 0.77 23.01 1.7L23.01 20.37C23.01 21.3 22.25 21.99 21.31 21.99ZM9.85 4.25C8.85 4.25 8.41 4.41 7.75 4.73C7.09 5.05 6.62 5.62 6.38 6.13C6.13 6.64 6.01 7.26 6.01 8.29L6.01 9.3L3.99 9.3L3.99 11.97L6.01 11.97L6.01 20L8.99 20L8.99 11.97L11.71 11.97L12.32 9.3L8.99 9.3L8.99 8.35C8.99 7.72 9.11 7.3 9.33 7.08C9.56 6.86 10.53 6.73 11.06 6.73C11.59 6.73 12.02 6.98 12.56 7.29L13.2 4.87C12.21 4.59 10.88 4.25 9.85 4.25Z" />
</svg>