<svg xmlns="http://www.w3.org/2000/svg" viewBox="0 0 24 21" width="24" height="21">
	<style>
		tspan { white-space:pre }
		.shp0 { fill: #ffffff } 
	</style>
	<path id="twitter" class="shp0" d="M15.72,0.08c-0.39,0.09 -0.76,0.2 -1.09,0.34c-1.4,0.62 -2.35,1.78 -2.78,3.39c-0.17,0.64 -0.25,1.71 -0.02,2.37c-0.79,0 -1.55,-0.13 -2.21,-0.3c-2.6,-0.66 -4.22,-1.54 -6.01,-2.99c-0.53,-0.42 -1.04,-0.9 -1.46,-1.44c-0.14,-0.17 -0.35,-0.32 -0.44,-0.53c-0.01,0 -0.02,-0.01 -0.02,-0.01c-0.21,0.4 -0.4,0.83 -0.53,1.32c-0.49,1.92 0.28,3.54 1.1,4.59c0.25,0.32 0.65,0.51 0.9,0.81c0.01,0 0.02,0 0.02,0c-0.19,0.07 -0.51,-0.03 -0.67,-0.06c-0.38,-0.08 -0.71,-0.16 -1.03,-0.3c-0.17,-0.08 -0.34,-0.16 -0.5,-0.25c-0.01,2.12 1.04,3.5 2.32,4.33c0.42,0.27 1,0.63 1.61,0.66c-0.32,0.28 -1.71,0.15 -2.2,0.1c0.6,1.6 1.53,2.66 3.12,3.23c0.41,0.15 0.91,0.28 1.46,0.27c-0.29,0.36 -0.92,0.65 -1.33,0.9c-0.85,0.51 -1.84,0.84 -2.95,1.09c-0.45,0.1 -0.92,0.08 -1.4,0.16c-0.53,0.09 -1.09,-0.05 -1.57,-0.06c0.14,0.09 0.29,0.18 0.43,0.27c0.44,0.28 0.9,0.52 1.39,0.74c0.89,0.4 1.84,0.7 2.89,0.97c2.12,0.54 5.11,0.3 6.96,-0.29c5.15,-1.65 8.41,-5.5 9.64,-11.18c0.21,-0.98 0.24,-2.08 0.23,-3.25c0.26,-0.21 0.51,-0.42 0.77,-0.63c0.63,-0.52 1.23,-1.25 1.67,-1.97c0,0 0,-0.01 0,-0.01c-0.84,0.27 -1.72,0.76 -2.78,0.77c0,0 0,-0.01 0,-0.01c0.21,-0.08 0.37,-0.26 0.54,-0.39c0.75,-0.59 1.24,-1.37 1.6,-2.37c-0.2,0.12 -0.41,0.23 -0.61,0.34c-0.63,0.33 -1.7,0.8 -2.52,0.87c-0.97,-0.91 -1.98,-1.62 -3.89,-1.59c-0.2,0.02 -0.4,0.05 -0.6,0.07z" />
</svg>