<svg xmlns="http://www.w3.org/2000/svg" viewBox="0 0 22 22" width="22" height="22">
	<style>
		tspan { white-space:pre }
		.shp0 { fill: #ffffff } 
	</style>
	<path id="instagram" class="shp0" d="M19.28 21.99L2.72 21.99C1.22 21.99 0.01 20.78 0.01 19.28L0.01 2.72C0.01 1.22 1.22 0.01 2.72 0.01L19.28 0.01C20.78 0.01 21.99 1.22 21.99 2.72L21.99 19.28C21.99 20.78 20.78 21.99 19.28 21.99ZM11 7C9.39 7 8 7.95 7.37 9.32L7.36 9.32C7.36 9.34 7.35 9.35 7.35 9.37C7.31 9.45 7.28 9.54 7.24 9.62C7.23 9.67 7.21 9.71 7.2 9.75C7.17 9.84 7.14 9.93 7.12 10.02C7.11 10.07 7.1 10.11 7.09 10.15C7.07 10.25 7.05 10.35 7.04 10.45C7.03 10.49 7.02 10.53 7.02 10.57C7 10.71 7 10.86 7 11C7 13.21 8.79 15 11 15C13.21 15 15 13.21 15 11C15 10.86 15 10.71 14.98 10.57C14.98 10.53 14.97 10.49 14.96 10.45C14.95 10.35 14.93 10.25 14.91 10.15C14.9 10.11 14.89 10.07 14.88 10.02C14.86 9.93 14.83 9.84 14.8 9.75C14.79 9.71 14.77 9.67 14.76 9.62C14.72 9.54 14.69 9.45 14.65 9.37C14.65 9.35 14.64 9.34 14.64 9.32L14.63 9.32C14 7.95 12.61 7 11 7ZM19.01 4.08C19.01 3.48 18.52 3 17.93 3L17.05 3C16.46 3 15.97 3.48 15.97 4.08L15.97 4.92C15.97 5.51 16.46 6 17.05 6L17.93 6C18.52 6 19.01 5.51 19.01 4.92L19.01 4.08ZM19.98 9.01L16.71 9.01C16.86 9.57 17.05 10.44 17.05 11.05C17.05 14.72 13.97 17.05 11 17.05C7.96 17.05 4.95 14.72 4.95 11.05C4.95 10.44 5.17 9.57 5.32 9.01L2.03 8.98L2.03 18.89C2.03 19.49 2.51 19.98 3.11 19.98L18.89 19.98C19.49 19.98 19.98 19.49 19.98 18.89L19.98 9.01Z" />
</svg>