<svg xmlns="http://www.w3.org/2000/svg" viewBox="0 0 16 17" width="16" height="17">
	<style>
		tspan { white-space:pre }
		.shp0 { fill: #333333 } 
	</style>
	<path id="Search" class="shp0" d="M15.53 16.53C14.95 17.12 14 17.12 13.41 16.53L10.76 13.89C9.68 14.58 8.39 15 7 15C3.13 15 0 11.87 0 8C0 4.13 3.13 1 7 1C10.87 1 14 4.13 14 8C14 9.39 13.58 10.68 12.89 11.76L15.53 14.41C16.12 15 16.12 15.95 15.53 16.53ZM7 3C4.24 3 2 5.24 2 8C2 10.76 4.24 13 7 13C9.76 13 12 10.76 12 8C12 5.24 9.76 3 7 3Z" />
</svg>